<svg xmlns="http://www.w3.org/2000/svg" width="495" height="196" viewBox="0 0 495 196" role="img" aria-label="Linguagens que uso">
  <style>
    .title { font: 600 16px 'Segoe UI', Ubuntu, Sans-Serif; fill: #fe428e; }
    .lang { font: 400 13px 'Segoe UI', Ubuntu, Sans-Serif; fill: #a9fef7; }
  </style>
  <rect width="495" height="196" rx="8" fill="#141321"/>
  <text x="25" y="36" class="title">Linguagens que uso</text>
  <rect x="25" y="58" width="445" height="10" rx="5" fill="#1f1e30"/>
  <clipPath id="bar">
    <rect x="25" y="58" width="445" height="10" rx="5"/>
  </clipPath>
  <g clip-path="url(#bar)">
    <rect x="25.00" y="58" width="55.62" height="10" fill="#3178c6"/><rect x="80.62" y="58" width="55.62" height="10" fill="#f1e05a"/><rect x="136.25" y="58" width="55.62" height="10" fill="#339933"/><rect x="191.88" y="58" width="55.62" height="10" fill="#3572A5"/><rect x="247.50" y="58" width="55.62" height="10" fill="#b07219"/><rect x="303.12" y="58" width="55.62" height="10" fill="#00758f"/><rect x="358.75" y="58" width="55.62" height="10" fill="#e34c26"/><rect x="414.38" y="58" width="55.62" height="10" fill="#563d7e"/>
  </g>
  
      <circle cx="31.0" cy="92.0" r="5" fill="#3178c6"/>
      <text x="43.0" y="96.0" class="lang">TypeScript</text>
      <circle cx="253.5" cy="92.0" r="5" fill="#f1e05a"/>
      <text x="265.5" y="96.0" class="lang">JavaScript</text>
      <circle cx="31.0" cy="114.0" r="5" fill="#339933"/>
      <text x="43.0" y="118.0" class="lang">Node.js</text>
      <circle cx="253.5" cy="114.0" r="5" fill="#3572A5"/>
      <text x="265.5" y="118.0" class="lang">Python</text>
      <circle cx="31.0" cy="136.0" r="5" fill="#b07219"/>
      <text x="43.0" y="140.0" class="lang">Java</text>
      <circle cx="253.5" cy="136.0" r="5" fill="#00758f"/>
      <text x="265.5" y="140.0" class="lang">SQL</text>
      <circle cx="31.0" cy="158.0" r="5" fill="#e34c26"/>
      <text x="43.0" y="162.0" class="lang">HTML</text>
      <circle cx="253.5" cy="158.0" r="5" fill="#563d7e"/>
      <text x="265.5" y="162.0" class="lang">CSS</text>
</svg>
