<svg xmlns="http://www.w3.org/2000/svg" width="495" height="196" viewBox="0 0 495 196" role="img" aria-label="Linguagens mais usadas">
  <style>
    .title { font: 600 16px 'Segoe UI', Ubuntu, Sans-Serif; fill: #fe428e; }
    .lang { font: 400 13px 'Segoe UI', Ubuntu, Sans-Serif; fill: #a9fef7; }
  </style>
  <rect width="495" height="196" rx="8" fill="#141321"/>
  <text x="25" y="36" class="title">Linguagens mais usadas</text>
  <rect x="25" y="58" width="445" height="10" rx="5" fill="#1f1e30"/>
  <clipPath id="bar">
    <rect x="25" y="58" width="445" height="10" rx="5"/>
  </clipPath>
  <g clip-path="url(#bar)">
    <rect x="25.00" y="58" width="176.67" height="10" fill="#e34c26"/><rect x="201.67" y="58" width="113.75" height="10" fill="#3572A5"/><rect x="315.42" y="58" width="69.38" height="10" fill="#563d7e"/><rect x="384.79" y="58" width="35.42" height="10" fill="#DA5B0B"/><rect x="420.22" y="58" width="32.35" height="10" fill="#f1e05a"/><rect x="452.56" y="58" width="13.19" height="10" fill="#b07219"/><rect x="465.76" y="58" width="4.24" height="10" fill="#8b949e"/>
  </g>
  
      <circle cx="31.0" cy="92.0" r="5" fill="#e34c26"/>
      <text x="43.0" y="96.0" class="lang">HTML 39.7%</text>
      <circle cx="253.5" cy="92.0" r="5" fill="#3572A5"/>
      <text x="265.5" y="96.0" class="lang">Python 25.6%</text>
      <circle cx="31.0" cy="114.0" r="5" fill="#563d7e"/>
      <text x="43.0" y="118.0" class="lang">CSS 15.6%</text>
      <circle cx="253.5" cy="114.0" r="5" fill="#DA5B0B"/>
      <text x="265.5" y="118.0" class="lang">Jupyter Notebook 8.0%</text>
      <circle cx="31.0" cy="136.0" r="5" fill="#f1e05a"/>
      <text x="43.0" y="140.0" class="lang">JavaScript 7.3%</text>
      <circle cx="253.5" cy="136.0" r="5" fill="#b07219"/>
      <text x="265.5" y="140.0" class="lang">Java 3.0%</text>
      <circle cx="31.0" cy="158.0" r="5" fill="#8b949e"/>
      <text x="43.0" y="162.0" class="lang">Other 1.0%</text>
</svg>
